<svg xmlns="http://www.w3.org/2000/svg" viewBox="0.00 0.00 1917.00 1026.00"><path fill="#00afef" d="  M 1418.43 124.23  C 1267.19 121.11 1115.52 133.73 965.50 151.98  C 778.76 174.69 592.99 205.26 408.07 239.59  Q 234.08 271.89 60.35 307.62  A 0.25 0.24 29.8 0 1 60.22 307.15  C 318.27 222.43 581.59 153.58 847.75 99.74  C 1022.32 64.43 1198.75 36.20 1376.32 21.48  C 1465.26 14.11 1554.93 10.94 1644.07 16.58  Q 1699.97 20.12 1752.25 30.73  C 1819.00 44.28 1912.10 78.11 1910.24 162.75  C 1909.12 213.67 1878.08 263.87 1848.68 303.50  A 0.35 0.35 0.0 0 1 1848.06 303.39  C 1816.88 195.71 1695.01 156.96 1598.24 140.28  C 1538.87 130.04 1478.63 125.47 1418.43 124.23  Z"></path><path fill="#373435" d="  M 1492.91 476.33  C 1487.24 452.71 1465.22 440.42 1441.91 441.91  C 1393.45 445.02 1386.38 490.52 1390.03 529.50  C 1392.56 556.48 1403.19 579.05 1431.57 585.69  Q 1440.43 587.76 1449.83 586.80  C 1474.87 584.24 1489.01 566.55 1494.53 543.21  Q 1494.76 542.24 1495.72 542.52  L 1538.42 554.79  A 0.46 0.46 0.0 0 1 1538.73 555.36  C 1527.72 593.67 1501.63 618.16 1461.50 622.49  C 1380.66 631.21 1333.65 574.12 1343.43 495.98  C 1349.28 449.18 1378.91 414.51 1426.56 407.06  C 1474.32 399.59 1523.47 415.67 1537.96 466.49  A 0.71 0.70 75.8 0 1 1537.44 467.38  L 1494.01 477.02  A 0.92 0.92 0.0 0 1 1492.91 476.33  Z"></path><path fill="#373435" d="  M 334.62 455.77  L 290.76 619.56  A 0.60 0.60 0.0 0 1 290.18 620.00  L 247.28 620.00  A 0.74 0.72 82.1 0 1 246.58 619.46  L 202.87 455.68  A 0.25 0.25 0.0 0 0 202.38 455.74  L 202.19 619.71  A 0.29 0.28 90.0 0 1 201.91 620.00  L 160.50 620.00  A 0.50 0.50 0.0 0 1 160.00 619.50  L 160.00 409.71  A 0.48 0.47 -0.0 0 1 160.48 409.24  L 228.01 409.26  Q 228.47 409.26 228.60 409.70  L 268.80 552.43  A 0.16 0.16 0.0 0 0 269.11 552.43  L 308.77 409.75  Q 308.91 409.24 309.44 409.24  L 377.00 409.26  Q 377.50 409.26 377.50 409.75  L 377.50 619.50  A 0.50 0.50 0.0 0 1 377.00 620.00  L 335.97 620.00  A 0.77 0.77 0.0 0 1 335.20 619.23  C 335.34 564.80 335.90 510.21 335.01 455.82  Q 334.99 454.40 334.62 455.77  Z"></path><path fill="#373435" d="  M 777.08 409.25  L 829.57 409.24  A 0.34 0.34 0.0 0 1 829.84 409.78  L 759.62 509.90  A 0.34 0.34 0.0 0 0 759.62 510.30  L 836.85 619.46  A 0.34 0.34 0.0 0 1 836.57 620.00  L 782.64 620.00  A 0.34 0.34 0.0 0 1 782.36 619.85  L 732.76 548.98  A 0.34 0.34 0.0 0 0 732.20 548.98  L 682.49 619.86  A 0.34 0.34 0.0 0 1 682.21 620.00  L 628.24 620.00  A 0.34 0.34 0.0 0 1 627.96 619.46  L 705.34 510.27  A 0.34 0.34 0.0 0 0 705.34 509.87  L 635.28 409.78  A 0.34 0.34 0.0 0 1 635.56 409.25  L 687.98 409.25  A 0.34 0.34 0.0 0 1 688.26 409.39  L 732.21 471.59  A 0.34 0.34 0.0 0 0 732.77 471.59  L 776.80 409.39  A 0.34 0.34 0.0 0 1 777.08 409.25  Z"></path><rect fill="#373435" x="859.00" y="409.24" width="45.50" height="210.76" rx="0.27"></rect><path fill="#373435" d="  M 1044.00 620.00  L 999.25 620.00  A 0.50 0.50 0.0 0 1 998.75 619.50  L 998.75 445.25  A 0.50 0.50 0.0 0 0 998.25 444.75  L 932.50 444.75  A 0.50 0.50 0.0 0 1 932.00 444.25  L 932.00 409.75  A 0.50 0.50 0.0 0 1 932.50 409.25  L 1110.50 409.25  A 0.50 0.50 0.0 0 1 1111.00 409.75  L 1111.00 444.25  A 0.50 0.50 0.0 0 1 1110.50 444.75  L 1045.00 444.75  A 0.50 0.50 0.0 0 0 1044.50 445.25  L 1044.50 619.50  A 0.50 0.50 0.0 0 1 1044.00 620.00  Z"></path><path fill="#373435" d="  M 1623.92 492.25  L 1712.08 492.25  A 0.42 0.42 0.0 0 0 1712.50 491.83  L 1712.50 409.67  A 0.42 0.42 0.0 0 1 1712.92 409.25  L 1757.83 409.25  A 0.42 0.42 0.0 0 1 1758.25 409.67  L 1758.25 619.58  A 0.42 0.42 0.0 0 1 1757.83 620.00  L 1712.92 620.00  A 0.42 0.42 0.0 0 1 1712.50 619.58  L 1712.50 528.17  A 0.42 0.42 0.0 0 0 1712.08 527.75  L 1623.92 527.75  A 0.42 0.42 0.0 0 0 1623.50 528.17  L 1623.50 619.58  A 0.42 0.42 0.0 0 1 1623.08 620.00  L 1578.42 620.00  A 0.42 0.42 0.0 0 1 1578.00 619.58  L 1578.00 409.67  A 0.42 0.42 0.0 0 1 1578.42 409.25  L 1623.09 409.25  A 0.42 0.42 0.0 0 1 1623.51 409.67  L 1623.50 491.83  A 0.42 0.42 0.0 0 0 1623.92 492.25  Z"></path><path fill="#373435" d="  M 447.96 620.00  L 400.80 620.00  A 0.55 0.55 0.0 0 1 400.30 619.24  L 487.45 409.59  A 0.55 0.55 0.0 0 1 487.96 409.25  L 535.59 409.25  A 0.55 0.55 0.0 0 1 536.09 409.58  L 625.96 619.23  A 0.55 0.55 0.0 0 1 625.46 620.00  L 577.50 620.00  A 0.55 0.55 0.0 0 1 576.99 619.66  L 557.74 572.34  A 0.55 0.55 0.0 0 0 557.23 572.00  L 467.43 572.00  A 0.55 0.55 0.0 0 0 466.91 572.35  L 448.48 619.65  A 0.55 0.55 0.0 0 1 447.96 620.00  Z  M 481.07 536.18  A 0.35 0.35 0.0 0 0 481.40 536.66  L 542.33 536.34  A 0.35 0.35 0.0 0 0 542.65 535.86  L 511.79 459.15  A 0.35 0.35 0.0 0 0 511.14 459.15  L 481.07 536.18  Z"></path><path fill="#373435" d="  M 1299.00 492.07  L 1299.00 526.67  A 0.58 0.58 0.0 0 1 1298.42 527.25  L 1186.58 527.25  A 0.58 0.58 0.0 0 0 1186.00 527.83  L 1186.00 583.92  A 0.58 0.58 0.0 0 0 1186.58 584.50  L 1311.40 584.48  A 0.58 0.58 0.0 0 1 1311.98 585.06  L 1312.00 619.42  A 0.58 0.58 0.0 0 1 1311.42 620.00  L 1141.03 620.00  A 0.58 0.58 0.0 0 1 1140.45 619.42  L 1140.52 409.83  A 0.58 0.58 0.0 0 1 1141.10 409.25  L 1306.92 409.25  A 0.58 0.58 0.0 0 1 1307.50 409.83  L 1307.50 444.17  A 0.58 0.58 0.0 0 1 1306.92 444.75  L 1186.58 444.75  A 0.58 0.58 0.0 0 0 1186.00 445.33  L 1186.00 490.93  A 0.58 0.58 0.0 0 0 1186.58 491.51  L 1298.42 491.49  A 0.58 0.58 0.0 0 1 1299.00 492.07  Z"></path><path fill="#3e4095" d="  M 537.25 906.50  C 634.13 906.42 730.84 900.70 827.25 891.51  C 936.20 881.12 1044.79 867.09 1153.00 850.76  C 1351.12 820.86 1548.58 784.75 1744.99 745.19  Q 1826.02 728.87 1857.17 722.54  Q 1860.40 721.89 1857.27 722.93  C 1642.39 794.03 1422.43 853.31 1201.26 902.53  C 997.55 947.87 790.86 985.07 583.00 1004.95  C 497.15 1013.16 410.26 1017.89 324.50 1015.76  C 275.87 1014.54 225.92 1010.49 177.48 1001.61  C 100.97 987.59 -6.54 950.73 9.24 849.98  C 16.23 805.31 42.51 762.28 69.23 726.70  Q 69.81 725.93 70.07 726.86  C 95.21 814.84 182.81 856.99 264.30 877.59  Q 327.98 893.68 393.42 899.81  C 441.04 904.26 489.42 906.54 537.25 906.50  Z"></path></svg>